<svg xmlns="http://www.w3.org/2000/svg" xmlns:xlink="http://www.w3.org/1999/xlink" width="1080" zoomAndPan="magnify" viewBox="0 0 810 809.999993" height="1080" preserveAspectRatio="xMidYMid meet" version="1.0"><path fill="#000000" d="M 809.933594 767.847656 L 0 767.847656 C 0 767.847656 0.292969 752.121094 10.011719 732.691406 C 10.011719 732.691406 17.789062 710.351562 16.808594 690.921875 C 16.808594 690.921875 25.546875 564.632812 111.070312 541.316406 C 111.070312 541.316406 129.742188 536.105469 136.226562 532.546875 C 136.226562 532.546875 143.035156 528.007812 166.671875 527.371094 C 166.671875 527.371094 219.152344 518.617188 242.804688 508.59375 L 303.386719 486.890625 L 305.65625 456.453125 C 305.65625 456.453125 286.21875 439.929688 281.679688 413.050781 C 277.136719 386.175781 267.417969 363.183594 267.417969 363.183594 C 267.417969 363.183594 260.296875 374.1875 253.488281 355.085938 C 253.488281 355.085938 245.382812 334.035156 244.09375 275.414062 C 244.09375 275.414062 234.328125 227.929688 234.328125 192.464844 C 234.328125 192.464844 230.929688 186.144531 218.777344 194.898438 C 206.625 203.648438 213.910156 199.273438 213.910156 199.273438 C 213.910156 199.273438 217.519531 191.550781 222.695312 186.683594 C 222.695312 186.683594 209.417969 180.527344 198.390625 201.902344 C 198.390625 201.902344 206.167969 149.109375 244.714844 129.027344 C 244.714844 129.027344 235.324219 128.375 230.78125 132.257812 C 230.78125 132.257812 246.039062 104.109375 272.027344 100.957031 C 272.027344 100.957031 268.675781 96.957031 260.589844 98.574219 C 260.589844 98.574219 288.457031 60.035156 347.734375 61 C 347.734375 61 346.117188 56.460938 339.957031 54.515625 C 339.957031 54.515625 348.714844 45.453125 386.609375 54.191406 C 386.609375 54.191406 407.988281 41.878906 442.011719 61.964844 C 442.011719 61.964844 434.890625 60.671875 430.351562 64.558594 C 430.351562 64.558594 451.40625 60.019531 490.28125 89.167969 C 490.28125 89.167969 483.792969 86.246094 479.582031 88.1875 C 479.582031 88.1875 512.296875 107.621094 525.902344 81.707031 C 525.902344 81.707031 526.558594 94.34375 518.128906 102.753906 C 518.128906 102.753906 526.882812 105.675781 530.445312 102.425781 C 530.445312 102.425781 530.769531 117.972656 516.839844 120.894531 C 516.839844 120.894531 527.539062 126.722656 526.230469 139.035156 C 526.230469 139.035156 515.53125 129.972656 506.792969 131.589844 C 506.792969 131.589844 529.464844 140.980469 532.714844 167.21875 C 532.714844 167.21875 523.960938 153.292969 515.546875 153.945312 C 515.546875 153.945312 530.132812 157.832031 527.539062 197.347656 C 527.539062 197.347656 525.921875 233.941406 523.648438 258.5625 C 523.648438 258.5625 552.480469 280.265625 515.546875 342.445312 C 515.546875 342.445312 498.707031 361.878906 495.457031 345.367188 C 495.457031 345.367188 488.335938 384.558594 489.953125 396.542969 L 490.605469 475.886719 C 490.605469 475.886719 497.726562 499.855469 532.714844 512.152344 C 532.714844 512.152344 640.925781 557.496094 647.394531 563.980469 C 647.394531 563.980469 668.125 571.753906 675.898438 572.40625 C 675.898438 572.40625 783.457031 595.722656 797.0625 694.824219 C 797.0625 694.824219 800.949219 725.261719 802.894531 730.453125 C 802.976562 730.4375 807.828125 744.367188 809.933594 767.847656 Z M 809.933594 767.847656 " fill-opacity="1" fill-rule="nonzero"/><path fill="#ffffff" d="M 395.886719 340.601562 L 356.128906 340.601562 L 355.574219 338.054688 C 355.476562 337.613281 353.171875 326.882812 354.96875 311.191406 C 356.015625 302.015625 358.253906 293.019531 361.632812 284.445312 C 365.847656 273.734375 371.859375 263.675781 379.46875 254.546875 L 379.488281 254.53125 C 379.535156 254.464844 384.910156 248.144531 390.363281 241.253906 C 400.507812 228.421875 401.570312 225.464844 401.683594 225.007812 L 401.796875 224.519531 L 402.058594 224.078125 C 402.175781 223.882812 413.949219 204.222656 408.984375 186.929688 C 406.632812 178.730469 400.800781 172.234375 391.65625 167.628906 C 391.117188 167.398438 384.515625 164.605469 374.359375 164.296875 C 368.183594 164.101562 361.894531 164.835938 355.703125 166.484375 C 347.929688 168.558594 340.234375 172.085938 332.851562 176.953125 L 329.539062 179.140625 L 316.550781 147.039062 L 318.886719 145.601562 C 319.558594 145.191406 335.695312 135.410156 357.550781 130.039062 C 370.488281 126.871094 382.71875 125.925781 393.925781 127.230469 C 408.070312 128.878906 420.582031 134.136719 431.117188 142.855469 C 431.820312 143.429688 442.027344 151.871094 448.496094 167.351562 C 452.351562 176.578125 454.066406 186.390625 453.609375 196.53125 C 453.039062 209.105469 449.101562 222.167969 441.914062 235.375 L 441.847656 235.492188 L 441.785156 235.605469 C 441.375 236.242188 431.542969 251.183594 424.144531 259.578125 L 423.996094 259.738281 C 423.898438 259.835938 414.113281 269.617188 405.6875 284.070312 C 400.785156 292.460938 397.289062 300.773438 395.3125 308.757812 C 392.863281 318.589844 392.71875 327.960938 394.871094 336.617188 Z M 381.414062 421.96875 C 365.652344 421.96875 352.84375 409.148438 352.84375 393.410156 C 352.84375 377.652344 365.667969 364.847656 381.414062 364.847656 C 397.175781 364.847656 409.980469 377.667969 409.980469 393.410156 C 409.980469 409.148438 397.160156 421.96875 381.414062 421.96875 Z M 381.414062 421.96875 " fill-opacity="1" fill-rule="nonzero"/></svg>