<svg xmlns="http://www.w3.org/2000/svg" xmlns:xlink="http://www.w3.org/1999/xlink" width="50" zoomAndPan="magnify" viewBox="0 0 37.5 37.499999" height="50" preserveAspectRatio="xMidYMid meet" version="1.0"><defs><clipPath id="4d69b643df"><path d="M 1.554688 1.554688 L 35.601562 1.554688 L 35.601562 35.601562 L 1.554688 35.601562 Z M 1.554688 1.554688 " clip-rule="nonzero"/></clipPath></defs><g clip-path="url(#4d69b643df)"><path fill="#ffee32" d="M 18.582031 1.554688 C 27.984375 1.554688 35.605469 9.175781 35.605469 18.582031 C 35.605469 27.984375 27.984375 35.605469 18.582031 35.605469 C 9.175781 35.605469 1.554688 27.984375 1.554688 18.582031 C 1.554688 9.175781 9.175781 1.554688 18.582031 1.554688 Z M 20.652344 7.574219 C 21.933594 7.574219 22.976562 8.617188 22.976562 9.898438 C 22.976562 11.183594 21.933594 12.222656 20.652344 12.222656 C 19.367188 12.222656 18.324219 11.183594 18.324219 9.898438 C 18.324219 8.617188 19.367188 7.574219 20.652344 7.574219 Z M 14.296875 16.25 C 15.796875 13.210938 22.199219 12.222656 21.058594 16.386719 C 20.40625 18.765625 18.679688 25.074219 18.414062 26.132812 C 18.082031 27.441406 19.582031 27.511719 21.191406 26.796875 C 19.824219 30.324219 12.914062 30.890625 14.390625 26.21875 C 14.390625 26.21875 16.347656 19.085938 16.882812 17.472656 C 17.476562 15.679688 15.460938 15.65625 14.296875 16.246094 Z M 18.582031 3.164062 C 10.066406 3.164062 3.167969 10.066406 3.167969 18.578125 C 3.167969 27.09375 10.070312 33.992188 18.582031 33.992188 C 27.097656 33.992188 33.996094 27.089844 33.996094 18.578125 C 33.996094 10.066406 27.09375 3.164062 18.582031 3.164062 Z M 18.582031 3.164062 " fill-opacity="1" fill-rule="nonzero"/></g></svg>