<svg xmlns="http://www.w3.org/2000/svg" xmlns:xlink="http://www.w3.org/1999/xlink" width="50" zoomAndPan="magnify" viewBox="0 0 37.5 37.499999" height="50" preserveAspectRatio="xMidYMid meet" version="1.0"><defs><clipPath id="8f9bd034d1"><path d="M 1.34375 1.34375 L 35.367188 1.34375 L 35.367188 35.390625 L 1.34375 35.390625 Z M 1.34375 1.34375 " clip-rule="nonzero"/></clipPath></defs><g clip-path="url(#8f9bd034d1)"><path fill="#222222" d="M 18.25 11.894531 C 21.789062 11.828125 24.707031 14.644531 24.777344 18.183594 C 24.777344 18.246094 24.777344 18.308594 24.777344 18.371094 C 24.816406 21.910156 21.980469 24.8125 18.441406 24.851562 C 14.902344 24.890625 12 22.054688 11.960938 18.515625 C 11.960938 18.46875 11.960938 18.417969 11.960938 18.371094 C 11.921875 14.847656 14.726562 11.957031 18.25 11.894531 Z M 18.9375 1.359375 C 17.980469 1.328125 17.023438 1.375 16.078125 1.5 C 15.742188 1.546875 15.464844 1.78125 15.367188 2.101562 L 14.421875 5.175781 C 14.339844 5.433594 14.140625 5.644531 13.886719 5.734375 C 13.441406 5.894531 13.003906 6.070312 12.578125 6.273438 C 12.332031 6.394531 12.042969 6.390625 11.800781 6.257812 L 8.964844 4.753906 C 8.664062 4.597656 8.300781 4.628906 8.035156 4.832031 C 6.820312 5.753906 5.738281 6.839844 4.816406 8.050781 C 4.609375 8.320312 4.578125 8.679688 4.734375 8.980469 L 6.246094 11.816406 C 6.375 12.054688 6.386719 12.347656 6.273438 12.59375 C 6.070312 13.019531 5.886719 13.457031 5.730469 13.898438 C 5.640625 14.160156 5.429688 14.359375 5.167969 14.4375 L 2.101562 15.382812 C 1.777344 15.480469 1.542969 15.757812 1.5 16.089844 C 1.292969 17.605469 1.292969 19.136719 1.5 20.648438 C 1.542969 20.980469 1.777344 21.261719 2.101562 21.355469 L 5.167969 22.304688 C 5.429688 22.382812 5.640625 22.582031 5.730469 22.839844 C 5.886719 23.285156 6.070312 23.71875 6.273438 24.148438 C 6.386719 24.394531 6.375 24.683594 6.246094 24.921875 L 4.734375 27.761719 C 4.578125 28.058594 4.609375 28.421875 4.816406 28.691406 C 5.738281 29.902344 6.820312 30.984375 8.035156 31.910156 C 8.300781 32.113281 8.664062 32.140625 8.964844 31.988281 L 11.800781 30.480469 C 12.042969 30.351562 12.332031 30.347656 12.578125 30.464844 C 13.003906 30.667969 13.441406 30.847656 13.886719 31.003906 C 14.140625 31.09375 14.339844 31.304688 14.421875 31.5625 L 15.367188 34.636719 C 15.464844 34.957031 15.742188 35.195312 16.078125 35.238281 C 17.585938 35.441406 19.121094 35.441406 20.632812 35.238281 C 20.964844 35.195312 21.242188 34.957031 21.34375 34.636719 L 22.285156 31.5625 C 22.367188 31.304688 22.566406 31.09375 22.824219 31.003906 C 23.265625 30.847656 23.707031 30.667969 24.128906 30.464844 C 24.375 30.347656 24.664062 30.351562 24.90625 30.480469 L 27.742188 31.988281 C 28.042969 32.140625 28.40625 32.113281 28.671875 31.910156 C 29.886719 30.984375 30.96875 29.902344 31.894531 28.691406 C 32.097656 28.421875 32.128906 28.058594 31.972656 27.761719 L 30.46875 24.921875 C 30.332031 24.683594 30.324219 24.394531 30.4375 24.148438 C 30.640625 23.71875 30.820312 23.285156 30.976562 22.839844 C 31.070312 22.582031 31.277344 22.382812 31.539062 22.304688 L 34.609375 21.355469 C 34.929688 21.257812 35.167969 20.980469 35.210938 20.648438 C 35.414062 19.136719 35.414062 17.605469 35.210938 16.089844 C 35.167969 15.757812 34.929688 15.480469 34.609375 15.382812 L 31.539062 14.4375 C 31.277344 14.359375 31.070312 14.160156 30.976562 13.898438 C 30.820312 13.457031 30.640625 13.019531 30.4375 12.59375 C 30.324219 12.347656 30.332031 12.054688 30.46875 11.816406 L 31.972656 8.980469 C 32.128906 8.679688 32.097656 8.320312 31.894531 8.050781 C 30.96875 6.839844 29.886719 5.753906 28.671875 4.832031 C 28.40625 4.628906 28.042969 4.597656 27.742188 4.753906 L 24.90625 6.257812 C 24.664062 6.390625 24.375 6.394531 24.128906 6.277344 C 23.707031 6.074219 23.265625 5.894531 22.824219 5.738281 C 22.566406 5.644531 22.367188 5.4375 22.285156 5.175781 L 21.34375 2.105469 C 21.242188 1.78125 20.964844 1.546875 20.632812 1.5 C 20.070312 1.425781 19.503906 1.378906 18.9375 1.359375 " fill-opacity="1" fill-rule="nonzero"/></g></svg>