<svg xmlns="http://www.w3.org/2000/svg" xmlns:xlink="http://www.w3.org/1999/xlink" width="1080" zoomAndPan="magnify" viewBox="0 0 810 809.999993" height="1080" preserveAspectRatio="xMidYMid meet" version="1.0"><defs><clipPath id="232922ccea"><path d="M 1 46.367188 L 810 46.367188 L 810 681.617188 L 1 681.617188 Z M 1 46.367188 " clip-rule="nonzero"/></clipPath></defs><g clip-path="url(#232922ccea)"><path fill="#000000" d="M 59.011719 46.367188 L 59.011719 161.867188 L 1.261719 161.867188 L 1.261719 681.617188 L 809.78125 681.617188 L 809.78125 161.867188 L 752.027344 161.867188 L 752.027344 46.367188 L 694.277344 46.367188 L 694.277344 161.867188 L 116.765625 161.867188 L 116.765625 46.367188 Z M 59.011719 219.617188 L 752.027344 219.617188 L 752.027344 623.867188 L 59.011719 623.867188 Z M 376.644531 277.367188 L 376.644531 335.117188 L 434.398438 335.117188 L 434.398438 277.367188 Z M 593.210938 302.632812 C 553.027344 302.632812 521.023438 336.714844 521.023438 376.625 L 521.023438 466.859375 C 521.023438 506.753906 553.007812 540.90625 593.210938 540.90625 C 633.394531 540.90625 665.402344 506.765625 665.402344 466.859375 L 665.402344 376.625 C 665.402344 336.714844 633.394531 302.632812 593.210938 302.632812 Z M 199.894531 306.242188 L 191.210938 317.800781 C 191.210938 317.800781 175.777344 335.117188 159.964844 335.117188 L 159.964844 392.867188 C 178.777344 392.867188 191.179688 384.722656 203.390625 377.527344 L 203.390625 537.242188 L 261.144531 537.242188 L 261.144531 306.242188 Z M 593.210938 360.382812 C 600.847656 360.382812 607.652344 366.695312 607.652344 376.625 L 607.652344 466.859375 C 607.652344 476.789062 600.847656 483.15625 593.210938 483.15625 C 585.601562 483.15625 578.773438 476.742188 578.773438 466.859375 L 578.773438 376.625 C 578.773438 366.695312 585.578125 360.382812 593.210938 360.382812 Z M 376.644531 392.867188 L 376.644531 450.617188 L 434.398438 450.617188 L 434.398438 392.867188 Z M 376.644531 508.367188 L 376.644531 566.117188 L 434.398438 566.117188 L 434.398438 508.367188 Z M 376.644531 508.367188 " fill-opacity="1" fill-rule="nonzero"/></g></svg>