<svg xmlns="http://www.w3.org/2000/svg" xmlns:xlink="http://www.w3.org/1999/xlink" width="1080" zoomAndPan="magnify" viewBox="0 0 810 809.999993" height="1080" preserveAspectRatio="xMidYMid meet" version="1.0"><defs><g/><clipPath id="8f190028a4"><path d="M 66.695312 66.695312 L 743.195312 66.695312 L 743.195312 743.195312 L 66.695312 743.195312 Z M 66.695312 66.695312 " clip-rule="nonzero"/></clipPath><clipPath id="62be990924"><path d="M 65.945312 146.195312 L 65.945312 663.804688 C 65.945312 708.125 101.875 744.054688 146.195312 744.054688 L 663.804688 744.054688 C 708.125 744.054688 744.054688 708.125 744.054688 663.804688 L 744.054688 146.195312 C 744.054688 101.875 708.125 65.945312 663.804688 65.945312 L 146.195312 65.945312 C 101.875 65.945312 65.945312 101.875 65.945312 146.195312 Z M 65.945312 146.195312 " clip-rule="nonzero"/></clipPath><clipPath id="925f7de4dd"><path d="M 147.09375 66.84375 L 662.90625 66.84375 C 707.226562 66.84375 743.15625 102.773438 743.15625 147.09375 L 743.15625 662.90625 C 743.15625 707.226562 707.226562 743.15625 662.90625 743.15625 L 147.09375 743.15625 C 102.773438 743.15625 66.84375 707.226562 66.84375 662.90625 L 66.84375 147.09375 C 66.84375 102.773438 102.773438 66.84375 147.09375 66.84375 Z M 147.09375 66.84375 " clip-rule="nonzero"/></clipPath><clipPath id="961eb64302"><path d="M 65.945312 65.945312 L 743.945312 65.945312 L 743.945312 743.945312 L 65.945312 743.945312 Z M 65.945312 65.945312 " clip-rule="nonzero"/></clipPath><clipPath id="be58067462"><path d="M 65.945312 146.195312 L 65.945312 663.804688 C 65.945312 708.125 101.875 744.054688 146.195312 744.054688 L 663.804688 744.054688 C 708.125 744.054688 744.054688 708.125 744.054688 663.804688 L 744.054688 146.195312 C 744.054688 101.875 708.125 65.945312 663.804688 65.945312 L 146.195312 65.945312 C 101.875 65.945312 65.945312 101.875 65.945312 146.195312 Z M 65.945312 146.195312 " clip-rule="nonzero"/></clipPath><clipPath id="4aea641ddc"><path d="M 65.945312 146.195312 L 65.945312 663.800781 C 65.945312 708.121094 101.875 744.050781 146.195312 744.050781 L 663.800781 744.050781 C 708.121094 744.050781 744.050781 708.121094 744.050781 663.800781 L 744.050781 146.195312 C 744.050781 101.875 708.121094 65.945312 663.800781 65.945312 L 146.195312 65.945312 C 101.875 65.945312 65.945312 101.875 65.945312 146.195312 Z M 65.945312 146.195312 " clip-rule="nonzero"/></clipPath></defs><g clip-path="url(#8f190028a4)"><g clip-path="url(#62be990924)"><g clip-path="url(#925f7de4dd)"><path fill="#000000" d="M 65.945312 630.945312 C 65.945312 693.347656 116.539062 743.945312 178.945312 743.945312 L 630.945312 743.945312 C 693.347656 743.945312 743.945312 693.347656 743.945312 630.945312 L 743.945312 178.945312 C 743.945312 116.539062 693.347656 65.945312 630.945312 65.945312 L 178.945312 65.945312 C 116.539062 65.945312 65.945312 116.539062 65.945312 178.945312 Z M 94.195312 178.945312 C 94.195312 132.21875 132.21875 94.195312 178.945312 94.195312 L 630.945312 94.195312 C 677.667969 94.195312 715.695312 132.21875 715.695312 178.945312 L 715.695312 630.945312 C 715.695312 677.667969 677.667969 715.695312 630.945312 715.695312 L 178.945312 715.695312 C 132.21875 715.695312 94.195312 677.667969 94.195312 630.945312 Z M 94.195312 178.945312 " fill-opacity="1" fill-rule="nonzero"/></g></g></g><g clip-path="url(#961eb64302)"><g clip-path="url(#be58067462)"><g clip-path="url(#4aea641ddc)"><path stroke-linecap="butt" transform="matrix(0.75, 0, 0, 0.75, 65.944241, 65.944257)" fill="none" stroke-linejoin="miter" d="M 0.00142869 107.001405 L 0.00142869 797.142021 C 0.00142869 856.23577 47.907678 904.142019 107.001427 904.142019 L 797.142043 904.142019 C 856.235792 904.142019 904.142041 856.23577 904.142041 797.142021 L 904.142041 107.001405 C 904.142041 47.907656 856.235792 0.00140669 797.142043 0.00140669 L 107.001427 0.00140669 C 47.907678 0.00140669 0.00142869 47.907656 0.00142869 107.001405 Z M 0.00142869 107.001405 " stroke="#000000" stroke-width="156" stroke-opacity="1" stroke-miterlimit="4"/></g></g></g><g fill="#000000" fill-opacity="1"><g transform="translate(151.195148, 611.090363)"><g><path d="M 130.359375 -11.703125 L 127.171875 -20.75 L 122.375 -30.859375 L 79.28125 -151.640625 L 74.484375 -160.15625 L 59.59375 -200.0625 L 56.40625 -211.765625 L 34.578125 -271.359375 L 29.796875 -280.40625 L 7.453125 -341.0625 L 4.78125 -355.421875 L 6.921875 -367.671875 L 18.09375 -370.859375 L 29.265625 -371.390625 L 38.84375 -372.984375 L 48.421875 -370.859375 L 90.984375 -370.328125 L 101.09375 -365.53125 L 110.671875 -357.03125 L 114.921875 -346.375 L 117.0625 -335.734375 L 123.4375 -314.984375 L 127.703125 -305.9375 L 161.75 -189.953125 L 163.875 -177.1875 L 168.140625 -177.71875 L 176.125 -197.9375 L 178.25 -209.109375 L 183.5625 -217.09375 L 202.71875 -278.8125 L 210.703125 -297.96875 L 228.265625 -350.640625 L 237.3125 -361.28125 L 247.953125 -366.609375 L 259.65625 -366.609375 L 270.828125 -360.21875 L 278.28125 -349.578125 L 282.53125 -340 L 286.796875 -330.953125 L 293.171875 -309.671875 L 297.4375 -299.5625 L 302.75 -279.34375 L 325.625 -219.21875 L 328.296875 -208.578125 L 338.9375 -178.25 L 344.25 -177.71875 L 347.453125 -187.828125 L 351.171875 -210.171875 L 358.09375 -232.515625 L 360.21875 -243.15625 L 389.484375 -336.8125 L 394.265625 -345.84375 L 396.9375 -355.953125 L 405.96875 -367.140625 L 417.15625 -372.453125 L 427.265625 -370.859375 L 438.4375 -371.921875 L 459.71875 -370.859375 L 478.34375 -371.921875 L 488.984375 -370.328125 L 499.625 -367.671875 L 502.8125 -354.890625 L 492.703125 -322.4375 L 487.390625 -312.859375 L 484.71875 -301.15625 L 450.671875 -210.703125 L 448.546875 -201.65625 L 443.75 -192.078125 L 439.5 -177.1875 L 421.9375 -131.953125 L 417.15625 -122.90625 L 385.21875 -30.328125 L 380.4375 -20.75 L 377.25 -10.640625 L 369.265625 -1.0625 L 356.5 3.1875 L 347.453125 4.78125 L 337.34375 5.328125 L 325.09375 -1.0625 L 314.984375 -12.234375 L 311.796875 -22.34375 L 303.8125 -39.90625 L 273.484375 -121.84375 L 264.4375 -139.9375 L 261.25 -151.109375 L 255.921875 -160.15625 L 250.609375 -161.75 L 243.6875 -141 L 234.109375 -120.78125 L 230.921875 -109.609375 L 214.421875 -70.234375 L 211.765625 -61.71875 L 206.984375 -50.546875 L 204.3125 -41.5 L 199 -31.921875 L 195.8125 -20.21875 L 191.015625 -11.171875 L 182.5 0 L 170.796875 4.25 L 150.578125 4.78125 L 138.875 -2.125 Z M 130.359375 -11.703125 "/></g></g></g></svg>