<svg xmlns="http://www.w3.org/2000/svg" xmlns:xlink="http://www.w3.org/1999/xlink" width="500" zoomAndPan="magnify" viewBox="0 0 375 374.999991" height="500" preserveAspectRatio="xMidYMid meet" version="1.0"><defs><clipPath id="a6c2b5d502"><path d="M 145.28125 46.402344 L 232.28125 46.402344 L 232.28125 134.902344 L 145.28125 134.902344 Z M 145.28125 46.402344 " clip-rule="nonzero"/></clipPath><clipPath id="a9fc3aea16"><path d="M 250.398438 143.308594 L 337.398438 143.308594 L 337.398438 231.808594 L 250.398438 231.808594 Z M 250.398438 143.308594 " clip-rule="nonzero"/></clipPath><clipPath id="aef0db5c43"><path d="M 39.066406 250.554688 L 126 250.554688 L 126 339 L 39.066406 339 Z M 39.066406 250.554688 " clip-rule="nonzero"/></clipPath><clipPath id="9bb3c509ea"><path d="M 148.523438 247.75 L 235.523438 247.75 L 235.523438 336.25 L 148.523438 336.25 Z M 148.523438 247.75 " clip-rule="nonzero"/></clipPath><clipPath id="06d30f10f5"><path d="M 252.367188 250.554688 L 339.367188 250.554688 L 339.367188 339 L 252.367188 339 Z M 252.367188 250.554688 " clip-rule="nonzero"/></clipPath><clipPath id="7a2d13a2e4"><path d="M 145.28125 144.429688 L 232.28125 144.429688 L 232.28125 232.929688 L 145.28125 232.929688 Z M 145.28125 144.429688 " clip-rule="nonzero"/></clipPath><clipPath id="8f3fb7ca7e"><path d="M 40.179688 144.429688 L 127 144.429688 L 127 232.929688 L 40.179688 232.929688 Z M 40.179688 144.429688 " clip-rule="nonzero"/></clipPath><clipPath id="10f1bda72d"><path d="M 39.066406 46.402344 L 126 46.402344 L 126 134.902344 L 39.066406 134.902344 Z M 39.066406 46.402344 " clip-rule="nonzero"/></clipPath><clipPath id="437474aa54"><path d="M 250.398438 46.402344 L 337.398438 46.402344 L 337.398438 134.902344 L 250.398438 134.902344 Z M 250.398438 46.402344 " clip-rule="nonzero"/></clipPath></defs><g clip-path="url(#a6c2b5d502)"><path fill="#202020" d="M 145.25 46.355469 L 232.074219 46.355469 L 232.074219 134.738281 L 145.25 134.738281 Z M 145.25 46.355469 " fill-opacity="1" fill-rule="nonzero"/></g><g clip-path="url(#a9fc3aea16)"><path fill="#00bf63" d="M 250.371094 143.257812 L 337.191406 143.257812 L 337.191406 231.640625 L 250.371094 231.640625 Z M 250.371094 143.257812 " fill-opacity="1" fill-rule="nonzero"/></g><g clip-path="url(#aef0db5c43)"><path fill="#00bf63" d="M 39.039062 250.507812 L 125.859375 250.507812 L 125.859375 338.890625 L 39.039062 338.890625 Z M 39.039062 250.507812 " fill-opacity="1" fill-rule="nonzero"/></g><g clip-path="url(#9bb3c509ea)"><path fill="#00bf63" d="M 148.496094 247.703125 L 235.316406 247.703125 L 235.316406 336.085938 L 148.496094 336.085938 Z M 148.496094 247.703125 " fill-opacity="1" fill-rule="nonzero"/></g><g clip-path="url(#06d30f10f5)"><path fill="#00bf63" d="M 252.339844 250.507812 L 339.160156 250.507812 L 339.160156 338.890625 L 252.339844 338.890625 Z M 252.339844 250.507812 " fill-opacity="1" fill-rule="nonzero"/></g><g clip-path="url(#7a2d13a2e4)"><path fill="#ffde59" d="M 145.25 144.382812 L 232.074219 144.382812 L 232.074219 232.765625 L 145.25 232.765625 Z M 145.25 144.382812 " fill-opacity="1" fill-rule="nonzero"/></g><g clip-path="url(#8f3fb7ca7e)"><path fill="#202020" d="M 40.152344 144.382812 L 126.972656 144.382812 L 126.972656 232.765625 L 40.152344 232.765625 Z M 40.152344 144.382812 " fill-opacity="1" fill-rule="nonzero"/></g><g clip-path="url(#10f1bda72d)"><path fill="#202020" d="M 39.039062 46.355469 L 125.859375 46.355469 L 125.859375 134.738281 L 39.039062 134.738281 Z M 39.039062 46.355469 " fill-opacity="1" fill-rule="nonzero"/></g><g clip-path="url(#437474aa54)"><path fill="#202020" d="M 250.371094 46.355469 L 337.191406 46.355469 L 337.191406 134.738281 L 250.371094 134.738281 Z M 250.371094 46.355469 " fill-opacity="1" fill-rule="nonzero"/></g></svg>